<?xml version="1.0" standalone="no"?>
<!DOCTYPE svg PUBLIC "-//W3C//DTD SVG 20010904//EN"
 "http://www.w3.org/TR/2001/REC-SVG-20010904/DTD/svg10.dtd">
<svg version="1.0" xmlns="http://www.w3.org/2000/svg"
 width="479.000000pt" height="479.000000pt" viewBox="0 0 479.000000 479.000000"
 preserveAspectRatio="xMidYMid meet">
<metadata>
Created by potrace 1.14, written by Peter Selinger 2001-2017
</metadata>
<g transform="translate(0.000000,479.000000) scale(0.100000,-0.100000)"
fill="#e9e9e9" stroke="none">
<path d="M2483 4203 c-13 -2 -33 -18 -45 -34 -60 -80 -112 -109 -383 -217
-246 -98 -443 -134 -856 -158 l-117 -7 -12 -71 c-21 -127 -25 -579 -5 -766 18
-174 52 -390 85 -528 11 -46 20 -91 20 -99 0 -9 -24 -79 -54 -157 -30 -77 -80
-224 -111 -326 -93 -301 -119 -344 -274 -458 -101 -74 -194 -163 -247 -238
-48 -67 -100 -171 -110 -220 -5 -28 -2 -34 28 -52 103 -64 339 -68 487 -9 78
32 88 51 106 197 27 218 66 334 159 474 51 76 189 236 204 236 4 0 24 -34 46
-76 49 -95 174 -284 262 -394 96 -121 330 -350 464 -454 125 -97 317 -226 403
-271 l54 -29 74 55 c302 222 639 574 834 869 173 263 267 442 340 653 l41 118
66 23 c78 28 113 51 166 111 100 114 175 356 129 419 -23 32 -50 13 -124 -84
-44 -57 -88 -104 -113 -118 -22 -14 -42 -23 -44 -21 -2 2 5 59 15 126 27 185
42 458 34 633 -7 173 -33 432 -43 441 -4 3 -79 14 -167 23 -248 27 -549 73
-663 101 -134 32 -273 85 -395 148 -90 47 -101 56 -123 99 -31 61 -60 75 -131
61z m54 -166 c111 -78 298 -162 468 -211 193 -55 485 -104 680 -115 l120 -6
17 -115 c35 -245 51 -465 52 -715 0 -137 -3 -268 -8 -289 l-7 -39 -97 6 c-123
7 -188 31 -306 113 -336 234 -369 249 -531 247 -55 0 -174 -11 -265 -24 -196
-27 -435 -31 -520 -10 -187 47 -270 165 -270 387 0 96 -11 123 -45 110 -23 -8
-71 -118 -96 -216 -17 -66 -20 -103 -17 -170 8 -139 54 -223 177 -322 95 -76
214 -134 312 -150 41 -6 75 -13 77 -14 2 -1 -13 -28 -31 -60 -54 -93 -88 -198
-94 -292 -5 -72 -2 -93 22 -167 28 -86 103 -224 168 -310 l36 -46 -21 -47
c-29 -65 -29 -162 -1 -223 43 -95 168 -197 293 -239 53 -18 82 -21 156 -18
200 9 300 108 329 328 8 62 75 197 288 580 85 153 130 225 141 224 9 0 66 -1
127 -2 109 -2 110 -2 104 -24 -12 -48 -238 -488 -302 -591 -95 -151 -218 -314
-351 -460 -173 -193 -525 -517 -561 -517 -9 0 -45 14 -81 31 -299 141 -756
587 -969 946 -55 94 -111 197 -111 206 0 11 161 127 176 127 19 0 194 -94 419
-225 201 -118 192 -114 145 -53 -90 118 -170 327 -170 443 0 73 18 159 46 223
13 30 23 56 22 57 -2 1 -26 10 -54 19 -73 24 -221 124 -285 193 -61 67 -103
138 -134 231 l-22 64 -57 -63 c-73 -81 -134 -165 -212 -296 -70 -116 -64 -118
-84 30 -23 179 -32 459 -20 687 6 124 15 266 20 315 5 50 10 98 10 107 0 13
14 18 68 23 303 30 578 78 732 127 102 32 361 158 426 207 21 16 40 30 41 30
2 1 24 -14 50 -32z"/>
<path d="M2417 3605 c-86 -30 -155 -71 -240 -144 -124 -105 -163 -176 -147
-263 14 -71 38 -109 91 -138 41 -23 53 -25 184 -25 117 1 162 5 275 30 111 24
157 30 260 29 109 0 135 -4 205 -28 105 -36 238 -110 353 -197 52 -39 96 -68
98 -66 10 9 -17 255 -36 336 -29 120 -70 200 -134 258 -65 59 -106 73 -222 73
-127 0 -214 22 -305 75 -153 88 -257 105 -382 60z"/>
</g>
</svg>
